# xmcd CD database file generated by OrangeCD 5.2
#
# Track frame offsets:
#	150
#	16995
#	33989
#	47384
#	64155
#	81149
#	94919
#	111465
#	125685
#	136755
#	154425
#	167370
#	185191
#	204211
#	218357
#	228602
#	243647
#	259292
#
# Disc length: 3585 seconds
#
# Revision: 0
# Processed by: cddbd v1.5.2PL0 Copyright (c) Steve Scherf et al.
# Submitted via: OrangeCD 5.2
#
DISCID=fa0dff12
DTITLE=Various Artist - Promo Only Country Radio January 2007
DYEAR=1900
DGENRE=Country
TTITLE0=Brooks and Dunn - Hillbilly Deluxe (remix)
TTITLE1=Keith Urban - Stupid Boy
TTITLE2=Josh Turner ft. Ralph Stanley - Me and God
TTITLE3=Dierks Bentley - Long Trip Alone
TTITLE4=Jack Ingram - Lips Of An Angel
TTITLE5=Miranda Lambert - Crazy Ex-Girlfriend
TTITLE6=Carolina Rain - Isn't she
TTITLE7=Sammy Kershaw - Babys got her blue jeans on
TTITLE8=Grayson Capps - Jukebox
TTITLE9=Nanci Griffith - Never be the sun
TTITLE10=Solomon Burke with Patty Loveless - You're the kind of trouble
TTITLE11=Joan Osbourne - Please don't tell me how the story ends
TTITLE12=Memarie - Cry like Memphis
TTITLE13=The Samaritans - Joys gonna come in the morning
TTITLE14=Sunny Sweeney - If I could
TTITLE15=Jaime Fox - The long way
TTITLE16=Aaron Tippin - He believed
TTITLE17=Toby Keith - Crash here tonight (acoustic version)
EXTD=
EXTT0=
EXTT1=
EXTT2=
EXTT3=
EXTT4=
EXTT5=
EXTT6=
EXTT7=
EXTT8=
EXTT9=
EXTT10=
EXTT11=
EXTT12=
EXTT13=
EXTT14=
EXTT15=
EXTT16=
EXTT17=
PLAYORDER=
